Coordinates
version=1
nRows=10
nColumns=34
inDegrees=yes

Units are S.I. units (second, meters, Newtons, ...)
If the header above contains a line with 'inDegrees', this indicates whether rotational values are in degrees (yes) or radians (no).

endheader
time	pelvis_tilt	pelvis_list	pelvis_rotation	pelvis_tx	pelvis_ty	pelvis_tz	hip_flexion_r	hip_adduction_r	hip_rotation_r	knee_angle_r	ankle_angle_r	subtalar_angle_r	mtp_angle_r	hip_flexion_l	hip_adduction_l	hip_rotation_l	knee_angle_l	ankle_angle_l	subtalar_angle_l	mtp_angle_l	lumbar_extension	lumbar_bending	lumbar_rotation	arm_flex_r	arm_add_r	arm_rot_r	elbow_flex_r	pro_sup_r	arm_flex_l	arm_add_l	arm_rot_l	elbow_flex_l	pro_sup_l
      0.00000000	      1.51443766	     -2.42531272	     -0.23557841	     -0.48074931	      0.95885198	     -0.15923702	     -3.17910508	      2.10470092	     -1.34376462	      5.08658175	      3.43066959	     -8.95322478	      0.00000000	     -4.95226538	     -4.52999946	     -4.45982482	      3.48858081	     13.25796727	      0.41904705	      0.00000000	     -3.21101070	      3.54684932	     -5.50769738	      2.54373503	     -5.10300951	      8.56566637	     24.72865200	     85.83304845	     -4.77979647	     -5.05083815	      6.64950513	     23.75204308	     74.58482329
      0.01666670	     -0.72671246	     -1.06968550	     -0.76203503	     -0.47843025	      0.95323913	     -0.15834167	     -1.00673115	      0.96335358	     -0.69202689	      4.39003999	      7.27245507	     -5.26726108	      0.00000000	     -1.69892560	     -2.67427944	     -5.27117757	      4.14168772	     12.73828835	      1.38349330	      0.00000000	      0.81940090	      2.34178234	     -5.39783527	      1.49517136	     -4.79858833	      7.46796871	     24.35324691	     85.69712991	     -5.55699587	     -4.93753424	      5.03491049	     22.64810721	     74.41883931
      0.03333330	     -1.29419873	     -0.43221479	     -1.14179506	     -0.48064528	      0.94919246	     -0.15887719	     -0.27721196	      0.10115698	     -0.93867096	      3.56504938	      7.50784033	     -4.68182177	      0.00000000	     -0.91589226	     -1.92113105	     -6.16710559	      4.54155452	     13.15438295	      2.47577203	      0.00000000	      1.82065887	      1.64791225	     -4.97167333	      1.38416009	     -4.95117114	      7.63340728	     24.70724332	     85.76091567	     -5.70307377	     -5.39424752	      5.54927976	     22.65988888	     74.61624937
      0.05000000	     -0.61564254	     -0.01862957	     -1.28596372	     -0.47682710	      0.95587278	     -0.15698827	     -1.34079584	     -0.36707829	     -0.98565995	      3.21602911	      7.87081235	     -3.57049986	      0.00000000	     -2.09182224	     -1.37380154	     -6.08616944	      4.25673808	     12.82925905	      2.01229983	      0.00000000	      1.41725160	      1.07638053	     -4.49313390	      1.19436320	     -4.94100501	      8.59182235	     24.64722222	     85.89203582	     -5.43984562	     -5.98633518	      8.22310277	     22.21840382	     75.25426682
      0.06666670	     -0.66964819	      0.06473580	     -1.39836249	     -0.48072197	      0.95238345	     -0.15824807	     -1.14157410	     -0.46452502	     -0.99249243	      2.86575802	      7.98512357	     -3.63259604	      0.00000000	     -2.15246811	     -1.19673983	     -5.94059354	      4.04162491	     12.99601233	      2.06245612	      0.00000000	      1.36823343	      1.12149219	     -4.40915844	      1.34998260	     -4.93305228	      8.63602620	     24.72615437	     85.89667400	     -5.39748587	     -5.94043274	      8.32454833	     22.22399947	     75.26846747
      0.08333330	     -0.13676242	      0.05795840	     -1.35951182	     -0.47957208	      0.95550291	     -0.15808622	     -1.84011313	     -0.42402911	     -0.33722897	      2.22810713	      7.63614630	     -4.11452056	      0.00000000	     -2.92051855	     -1.15258228	     -5.50893393	      3.58996440	     12.95563495	      1.99705979	      0.00000000	      0.80329407	      1.08078639	     -3.93985067	      1.22838595	     -5.46925619	     10.88828690	     25.13924993	     85.89650702	     -4.24944379	     -6.32383526	     12.94514320	     21.05774590	     75.48384953
      0.10000000	     -0.17319976	      0.12511392	     -1.37792924	     -0.47804685	      0.95982980	     -0.15625824	     -1.91885542	     -0.39172890	     -0.33650572	      2.26400273	      7.63102330	     -4.10941307	      0.00000000	     -2.87275632	     -1.15293504	     -5.51064190	      3.56934671	     12.94576388	      1.99573930	      0.00000000	      0.80975872	      1.08082287	     -3.94941048	      1.22262442	     -5.46964028	     10.88846526	     25.13584121	     85.89587659	     -4.23380215	     -6.31758411	     12.94630274	     21.06326504	     75.48285849
      0.11666670	      0.07824357	      0.47948673	     -1.36206601	     -0.47742283	      0.95998165	     -0.15572935	     -2.51006444	     -0.70921611	     -0.36748505	      1.92612662	      7.50237259	     -3.59591369	      0.00000000	     -3.41233288	     -0.81458244	     -5.68446196	      3.06163670	     11.54968229	      1.79110347	      0.00000000	      0.79798454	      0.47632516	     -3.89167180	      0.97463701	     -5.21468133	     10.94329308	     24.71060898	     85.80691103	     -3.89139513	     -6.44189703	     13.04631269	     20.88003083	     75.28946538
      0.13333330	      0.12935009	      0.57219050	     -1.30048974	     -0.47802659	      0.95897128	     -0.15571464	     -2.68840219	     -0.76131244	     -0.29719687	      1.89570313	      7.53268362	     -3.53108724	      0.00000000	     -3.42008638	     -0.76779244	     -5.77878174	      3.16462129	     11.32471414	      1.74095490	      0.00000000	      0.79712793	      0.43246201	     -4.01692517	      0.82431498	     -5.15048237	     10.96213974	     24.63075144	     85.79742330	     -3.72552222	     -6.47473230	     13.05029877	     20.88502869	     75.26250736
      0.15000000	      0.09239307	      0.58403055	     -1.30331786	     -0.47740860	      0.96040144	     -0.15580997	     -2.71460749	     -0.73933085	     -0.29685687	      1.90487685	      7.53098939	     -3.52861314	      0.00000000	     -3.42998164	     -0.75909791	     -5.77357976	      3.17542068	     11.31126269	      1.74381388	      0.00000000	      0.79268071	      0.42396632	     -4.01393620	      0.83086008	     -5.14747779	     10.96252817	     24.63084652	     85.79691858	     -3.72116316	     -6.47907328	     13.05016379	     20.88217134	     75.26094518
